<?xml version="1.0" encoding="UTF-8"?>
<svg width="39px" height="52px" viewBox="0 0 39 52" version="1.1" xmlns="http://www.w3.org/2000/svg" xmlns:xlink="http://www.w3.org/1999/xlink">
    <title>Logo</title>
    <defs>
        <polygon id="path-1" points="0 0 38.5069909 0 38.5069909 52 0 52"></polygon>
    </defs>
    <g id="Profile-Popovers" stroke="none" stroke-width="1" fill="none" fill-rule="evenodd">
        <g id="User-Profile-Editor-(Encryption)" transform="translate(-606.000000, -207.000000)">
            <g id="User-Profile-Editor" transform="translate(121.000000, 90.000000)">
                <g id="Popover" transform="translate(239.000000, 60.000000)">
                    <g id="Content" transform="translate(225.000000, 27.000000)">
                        <g id="Current-Device" transform="translate(13.000000, 0.000000)">
                            <g id="Details" transform="translate(8.000000, 29.000000)">
                                <g id="Identity" transform="translate(0.000000, 1.000000)">
                                    <g id="Logo" transform="translate(0.145710, -0.000000)">
                                        <g id="Group-3" transform="translate(-0.000000, -0.000000)">
                                            <mask id="mask-2" fill="white">
                                                <use xlink:href="#path-1"></use>
                                            </mask>
                                            <g id="Clip-2"></g>
                                            <path d="M35.1621727,0 L3.31057515,0 C3.18155199,0 3.05436329,0 2.92595162,0.000611484143 C2.81833041,0.00122296829 2.71132069,0.00305742071 2.60369948,0.00489187314 C2.36950105,0.0110067146 2.13346817,0.0250708498 1.89988123,0.0666517715 C1.66507132,0.108232693 1.44677148,0.17855337 1.23275203,0.286786063 C1.02301297,0.394407272 0.830395466,0.534437141 0.664683263,0.700760827 C0.496525124,0.867084514 0.357718223,1.05970202 0.250708498,1.27005256 C0.141864321,1.48346053 0.0721551288,1.70298334 0.0317971754,1.93779325 C-0.0110067146,2.17015722 -0.0250708498,2.40557862 -0.0311856913,2.64038853 C-0.0348545961,2.74800974 -0.0348545961,2.85624243 -0.0366890486,2.96386364 C-0.0366890486,3.09105234 -0.0366890486,3.21885253 -0.0366890486,3.3472642 L-0.0366890486,48.6533473 C-0.0366890486,48.7823704 -0.0366890486,48.9095591 -0.0366890486,49.0373593 C-0.0348545961,49.1462035 -0.0348545961,49.2519903 -0.0311856913,49.3608344 C-0.0250708498,49.5956444 -0.0110067146,49.8310657 0.0317971754,50.0634297 C0.0721551288,50.2982396 0.141864321,50.5189854 0.250708498,50.7317819 C0.357718223,50.9409095 0.496525124,51.133527 0.664683263,51.2986277 C0.830395466,51.4661743 1.02301297,51.6055927 1.23275203,51.711991 C1.44677148,51.8220581 1.66507132,51.8911558 1.89988123,51.9333482 C2.13346817,51.9755406 2.36950105,51.9889933 2.60369948,51.9957196 C2.71132069,51.9981655 2.81833041,51.9993885 2.92595162,51.9993885 C3.05436329,52 3.18155199,52 3.31057515,52 L35.1621727,52 C35.2881384,52 35.4165501,52 35.5425158,51.9993885 C35.6495255,51.9993885 35.7589812,51.9981655 35.8659909,51.9957196 C36.1014123,51.9889933 36.3368337,51.9755406 36.5685862,51.9333482 C36.8033961,51.8911558 37.0223074,51.8220581 37.2381613,51.711991 C37.4479004,51.6055927 37.6399064,51.4661743 37.8056186,51.2986277 C37.9731653,51.133527 38.1125836,50.9409095 38.2202048,50.7317819 C38.3284375,50.5189854 38.3975352,50.2982396 38.4378932,50.0634297 C38.4813086,49.8310657 38.4947612,49.5956444 38.5027105,49.3608344 C38.504545,49.2519903 38.504545,49.1462035 38.504545,49.0373593 C38.5069909,48.9095591 38.5069909,48.7823704 38.5069909,48.6533473 L38.5069909,3.3472642 C38.5069909,3.21885253 38.5069909,3.09105234 38.504545,2.96386364 C38.504545,2.85624243 38.504545,2.74800974 38.5027105,2.64038853 C38.4947612,2.40557862 38.4813086,2.17015722 38.4378932,1.93779325 C38.3975352,1.70298334 38.3284375,1.48346053 38.2202048,1.27005256 C38.1125836,1.05970202 37.9731653,0.867084514 37.8056186,0.700760827 C37.6399064,0.534437141 37.4479004,0.394407272 37.2381613,0.286786063 C37.0223074,0.17855337 36.8033961,0.108232693 36.5685862,0.0666517715 C36.3368337,0.0250708498 36.1014123,0.0110067146 35.8659909,0.00489187314 C35.7589812,0.00305742071 35.6495255,0.00122296829 35.5425158,0.000611484143 C35.4165501,0 35.2881384,0 35.1621727,0" id="Fill-1" fill="#000000" mask="url(#mask-2)"></path>
                                        </g>
                                        <path d="M3.31057515,51.5750185 C3.18216348,51.5750185 3.05558626,51.5750185 2.92778607,51.574407 C2.82138783,51.574407 2.71804701,51.5731841 2.61287174,51.5707381 C2.4214772,51.5652348 2.1940051,51.5548395 1.9744823,51.5157046 C1.77024659,51.478404 1.59536213,51.4209245 1.4265925,51.3340938 C1.25415398,51.2466515 1.10005997,51.1341385 0.966756429,50.9996119 C0.829172497,50.8650854 0.717270899,50.7109914 0.629217183,50.5385529 C0.543609403,50.3716177 0.484906925,50.1930644 0.450052329,49.9906631 C0.408471407,49.7613566 0.398076177,49.5277696 0.393795788,49.3498277 C0.391349851,49.2740037 0.390126883,49.2030715 0.389515399,49.1315279 L0.388292431,49.0300215 L0.388292431,2.96386364 L0.389515399,2.86847211 C0.390126883,2.79753995 0.391349851,2.72599631 0.393795788,2.65506415 C0.398076177,2.47284187 0.408471407,2.23986641 0.449440845,2.01422877 C0.484906925,1.80938158 0.543609403,1.63082821 0.629217183,1.46328155 C0.717270899,1.28962006 0.829783981,1.13552605 0.963699009,1.00283399 C1.10005997,0.865861546 1.25476546,0.75273698 1.42598102,0.665294747 C1.59597361,0.579075483 1.77513847,0.520373005 1.97325933,0.485518409 C2.20256588,0.444548972 2.43615282,0.434153741 2.61409471,0.429873352 L2.68869577,0.428650384 C2.7688002,0.426815932 2.84829314,0.425592963 2.92839756,0.424981479 C3.05558626,0.424369995 3.18216348,0.424369995 3.31057515,0.424369995 L35.1621727,0.424369995 C35.2875269,0.424369995 35.4153271,0.424369995 35.5406813,0.424981479 C35.6213972,0.425592963 35.7051706,0.427427416 35.7871094,0.428650384 L35.8592646,0.429873352 C36.034149,0.434153741 36.267736,0.444548972 36.4933736,0.484906925 C36.6939404,0.520373005 36.8743282,0.579686967 37.0473783,0.666517715 C37.2149249,0.75273698 37.3702419,0.865861546 37.5053799,1.00099954 C37.6399064,1.13491457 37.753031,1.29084302 37.8429191,1.46389304 C37.9266925,1.63143969 37.9853949,1.81060455 38.0190266,2.00933689 C38.0593845,2.22519079 38.0710027,2.44715954 38.0783405,2.65506415 C38.0795635,2.75167864 38.0795635,2.85807688 38.0795635,2.96386364 C38.0826209,3.09716718 38.0820593,3.22190995 38.0820593,3.3472642 L38.0820593,48.6533473 C38.0820593,48.779313 38.0826209,48.9034443 38.0795635,49.0275756 C38.0795635,49.1443691 38.0795635,49.2477099 38.077729,49.3553311 C38.0710027,49.5540634 38.0593845,49.7760322 38.0202495,49.9857712 C37.9847835,50.1918414 37.9266925,50.3710062 37.8416962,50.5397759 C37.753031,50.7103799 37.6405179,50.8650854 37.5078258,50.995943 C37.3702419,51.1347499 37.2161479,51.2466515 37.0455438,51.3334823 C36.8743282,51.420313 36.6988323,51.478404 36.4927621,51.5157046 C36.2756853,51.5548395 36.0482132,51.5652348 35.8543727,51.5713496 C35.7528663,51.5731841 35.6464681,51.574407 35.5425158,51.574407 C35.4153271,51.5750185 35.2875269,51.5750185 35.1621727,51.5750185 L3.31057515,51.5750185" id="Fill-4" fill="#FFFFFE"></path>
                                        <g id="macOS-Logo" transform="translate(4.280389, 36.689049)" fill="#000000" fill-rule="nonzero">
                                            <path d="M0,6.91880454 L1.17438053,6.91880454 L1.17438053,3.85788771 C1.17438053,3.25420421 1.57054179,2.81559193 2.13650715,2.81559193 C2.68358928,2.81559193 3.02317333,3.1598847 3.02317333,3.71639637 L3.02317333,6.91869588 L4.16450943,6.91869588 L4.16450943,3.82952666 C4.16450943,3.23056397 4.55124116,2.81553156 5.11719444,2.81553156 C5.69257726,2.81553156 6.01329015,3.16453306 6.01329015,3.77765818 L6.01329015,6.91874417 L7.18764774,6.91874417 L7.18764774,3.49006336 C7.18764774,2.49021859 6.54151322,1.82522499 5.5557705,1.82522499 C4.83417554,1.82522499 4.23998194,2.21195672 3.9993537,2.82979056 L3.97105543,2.82979056 C3.78712514,2.18837684 3.28248195,1.82522499 2.5750977,1.82522499 C1.89595376,1.82522499 1.3677307,2.20724799 1.15076685,2.78735161 L1.12718576,2.78735161 L1.12718576,1.91955658 L0,1.91955658 L0,6.91880454 L0,6.91880454 Z M9.75820454,6.11232685 C9.24884055,6.11232685 8.90928065,5.85292888 8.90928065,5.4426052 C8.90928065,5.04644394 9.23470228,4.79176194 9.80065556,4.75403172 L10.956142,4.68328726 L10.956142,5.06531026 C10.956142,5.66899376 10.4231981,6.11232685 9.75820454,6.11232685 L9.75820454,6.11232685 Z M9.40448223,6.99898578 C10.0458959,6.99898578 10.6731835,6.66413462 10.960899,6.12176121 L10.9844801,6.12176121 L10.9844801,6.91881661 L12.1163867,6.91881661 L12.1163867,3.47588887 C12.1163867,2.4713233 11.3099017,1.81575924 10.0695374,1.81575924 C8.79612742,1.81575924 7.99914446,2.48547364 7.94722768,3.41926335 L9.03668322,3.41926335 C9.11214366,3.00423095 9.46586597,2.73539861 10.0223897,2.73539861 C10.6024933,2.73539861 10.9562157,3.03724036 10.9562157,3.56074262 L10.9562157,3.91918574 L9.63559763,3.99464617 C8.41881316,4.07010661 7.73496049,4.60305048 7.73496049,5.48972873 C7.73496049,6.39053318 8.43768431,6.99898578 9.40450758,6.99898578 L9.40448223,6.99898578 Z M17.2714441,3.70227018 C17.1912677,2.65054486 16.3753484,1.81575924 15.0548391,1.81575924 C13.6022558,1.81575924 12.65894,2.8203248 12.65894,4.41908397 C12.65894,6.04154375 13.6021955,7.01769997 15.0642565,7.01769997 C16.3188316,7.01769997 17.1818575,6.28195467 17.2761529,5.16415015 L16.1678262,5.16415015 C16.0593515,5.73010343 15.6726125,6.0696754 15.0783706,6.0696754 C14.3331958,6.0696754 13.8521687,5.4659919 13.8521687,4.41896323 C13.8521687,3.39081779 14.3285112,2.76825107 15.0689532,2.76825107 C15.6962166,2.76825107 16.0687979,3.16913313 16.1631295,3.702077 L17.2714562,3.702077 L17.2714441,3.70227018 Z M20.8984954,0 C18.9129803,0 17.6678227,1.35357915 17.6678227,3.51838819 C17.6678227,5.68319722 18.9128596,7.03206764 20.8984954,7.03206764 C22.8793017,7.03206764 24.1244593,5.68319722 24.1244593,3.51838819 C24.1244593,1.35357915 22.8794224,0 20.8984954,0 L20.8984954,0 Z M20.8984954,1.03758706 C22.1105711,1.03758706 22.8840104,1.99971367 22.8840104,3.51836404 C22.8840104,5.03228152 22.110547,5.99443229 20.8984954,5.99443229 C19.6817109,5.99443229 18.9129803,5.03230567 18.9129803,3.51836404 C18.9129803,1.99973782 19.681735,1.03758706 20.8984954,1.03758706 Z M24.6198419,5.00402914 C24.6717213,6.25860419 25.6998679,7.03204349 27.265666,7.03204349 C28.9116694,7.03204349 29.9492806,6.22083775 29.9492806,4.9285687 C29.9492806,3.91457359 29.3644562,3.34389951 27.9826005,3.02793156 L27.1996955,2.84871 C26.3649098,2.65062937 26.0206291,2.38651784 26.0206291,1.93375521 C26.0206291,1.36780193 26.5394227,0.990499742 27.3081653,0.990499742 C28.0863496,0.990499742 28.6192451,1.37252274 28.6758707,2.00921565 L29.8360779,2.00921565 C29.8077796,0.811278184 28.817362,3.62210101e-05 27.3176311,3.62210101e-05 C25.8366747,3.62210101e-05 24.7849373,0.815950695 24.7849373,2.02334185 C24.7849373,2.994898 25.3791913,3.59859358 26.6336577,3.88630913 L27.515603,4.09383137 C28.3739685,4.29663281 28.72297,4.57960341 28.72297,5.07009626 C28.72297,5.63604954 28.152296,6.04165241 27.331721,6.04165241 C26.5016562,6.04165241 25.8744291,5.63134081 25.7989686,5.00406536 L24.6199023,5.00406536 L24.6198419,5.00402914 Z" id="Shape"></path>
                                        </g>
                                        <path d="M19.3393803,11.4420387 C20.3491652,11.4420387 21.6199056,10.7612849 22.3800808,9.84226722 C23.0721805,9.00267083 23.5600541,7.85673522 23.5600541,6.69945371 C23.5600541,6.54061115 23.5487082,6.38176859 23.5260164,6.25696372 C22.3914267,6.30234731 21.029919,7.00579293 20.2243603,7.95884829 C19.5776442,8.68498571 18.9876575,9.84226722 18.9876575,10.9995487 C18.9876575,11.1810831 19.0216952,11.3512715 19.0330411,11.408001 C19.1011165,11.4193469 19.2145754,11.4420387 19.3393803,11.4420387 Z M15.7767686,28.7104942 C17.1609681,28.7104942 17.7736465,27.7914766 19.4982229,27.7914766 C21.245491,27.7914766 21.6425974,28.6878024 23.1742936,28.6878024 C24.5426088,28.6878024 25.497366,27.5574107 26.3776828,26.3305221 L26.5722213,26.056712 C26.604486,26.0109523 26.6366832,25.9651653 26.6688299,25.9194035 C27.7353442,24.3423238 28.1891801,22.8106277 28.200526,22.7312064 C28.1875593,22.7279647 28.1171684,22.7008735 28.0060249,22.6471211 L27.9011677,22.5944527 C27.1407691,22.1989274 25.2052092,20.9066009 25.2052092,18.1928475 C25.2052092,15.3109897 27.4857345,14.0175574 27.6218853,13.9154443 C26.1128809,11.748378 23.8096638,11.6803026 23.1742936,11.6803026 C21.4837549,11.6803026 20.0995554,12.7127792 19.2145754,12.7127792 C18.272866,12.7127792 17.0475091,11.748378 15.5725425,11.748378 C12.7701058,11.748378 9.93363155,14.062941 9.93363155,18.4197655 C9.93363155,21.1427808 10.9774541,24.0132928 12.2822323,25.862674 C13.3941302,27.4284078 14.3698774,28.7104942 15.7767686,28.7104942 Z" id="Apple-Logo" fill="#000000" fill-rule="nonzero"></path>
                                    </g>
                                </g>
                            </g>
                        </g>
                    </g>
                </g>
            </g>
        </g>
    </g>
</svg>