<svg height="28" width="28" xmlns="http://www.w3.org/2000/svg"><path d="M9.98 12.701c.402 0 .748-.16 1.04-.478.291-.32.437-.73.437-1.23s-.146-.912-.437-1.231c-.292-.32-.638-.479-1.04-.479-.4 0-.745.16-1.032.479-.287.319-.43.729-.43 1.23s.143.912.43 1.23c.287.32.631.48 1.032.48zm7.985 0c.4 0 .747-.16 1.039-.478.292-.32.437-.73.437-1.23s-.145-.912-.437-1.231c-.292-.32-.638-.479-1.04-.479-.4 0-.744.16-1.031.479-.287.319-.431.729-.431 1.23s.144.912.43 1.23c.288.32.632.48 1.033.48zM9.16 17.992c0 .301.198.672.595 1.114.396.443.955.834 1.675 1.176.72.342 1.554.513 2.502.513.948 0 1.782-.171 2.502-.513.72-.342 1.278-.733 1.674-1.176.397-.442.595-.813.595-1.114 0-.164-.064-.278-.191-.342a.463.463 0 0 0-.41 0c-.502.274-1.074.536-1.716.787-.643.25-1.46.376-2.454.376s-1.812-.126-2.454-.376c-.643-.251-1.21-.513-1.703-.787-.155-.063-.296-.063-.423 0s-.192.178-.192.342zm4.785 9.899c1.905 0 3.699-.365 5.38-1.094s3.165-1.736 4.45-3.022c1.286-1.285 2.293-2.768 3.022-4.45s1.094-3.475 1.094-5.38-.365-3.698-1.094-5.38a14.255 14.255 0 0 0-3.022-4.45c-1.285-1.285-2.77-2.292-4.457-3.021S15.837 0 13.932 0s-3.699.365-5.38 1.094a14.173 14.173 0 0 0-4.444 3.021 14.313 14.313 0 0 0-3.014 4.45C.364 10.247 0 12.04 0 13.945s.365 3.699 1.094 5.38 1.736 3.165 3.021 4.45a14.255 14.255 0 0 0 4.45 3.022c1.682.729 3.475 1.094 5.38 1.094zm0-2.325c-1.613 0-3.121-.3-4.525-.902a11.69 11.69 0 0 1-3.698-2.495 11.596 11.596 0 0 1-2.489-3.698c-.597-1.404-.895-2.912-.895-4.526s.298-3.121.895-4.525C3.83 8.016 4.658 6.78 5.715 5.715S8.003 3.817 9.406 3.22c1.404-.597 2.912-.896 4.526-.896 1.613 0 3.121.299 4.525.896a11.715 11.715 0 0 1 6.207 6.2c.602 1.404.902 2.912.902 4.525s-.298 3.122-.895 4.526a11.596 11.596 0 0 1-2.488 3.698 11.67 11.67 0 0 1-3.705 2.495c-1.409.602-2.92.902-4.533.902z"/></svg>