<svg height="22" width="18" xmlns="http://www.w3.org/2000/svg"><path d="M3.557 21.252h11.2c1.023 0 1.79-.254 2.3-.762s.767-1.263.767-2.265V8.479c0-1.003-.255-1.758-.766-2.266s-1.278-.762-2.3-.762h-2.725v1.572h2.696c.481 0 .856.13 1.123.391s.4.645.4 1.152v9.57c0 .509-.134.893-.4 1.153-.267.26-.642.39-1.123.39H3.576c-.488 0-.862-.13-1.123-.39-.26-.26-.39-.644-.39-1.152v-9.57c0-.508.13-.893.39-1.153s.635-.39 1.123-.39h2.705V5.45H3.557c-1.022 0-1.79.252-2.3.757S.49 7.469.49 8.478v9.747c0 1.009.256 1.766.767 2.27s1.278.757 2.3.757zm5.605-6.426a.73.73 0 0 0 .278-.054.88.88 0 0 0 .279-.2l3.3-3.193a.638.638 0 0 0 .234-.508.642.642 0 0 0-.204-.493.718.718 0 0 0-.508-.19.669.669 0 0 0-.527.234l-1.485 1.572-.654.694.059-1.465V.93a.725.725 0 0 0-.23-.537.75.75 0 0 0-.542-.225.76.76 0 0 0-.552.225.725.725 0 0 0-.23.537v10.293l.06 1.465-.655-.694-1.484-1.572a.68.68 0 0 0-.537-.234.7.7 0 0 0-.503.19.65.65 0 0 0-.2.493c0 .104.02.197.058.278s.098.158.176.23l3.3 3.193a.88.88 0 0 0 .279.2.756.756 0 0 0 .288.054z"/></svg>