<svg height="22" width="19" xmlns="http://www.w3.org/2000/svg"><path d="M4.8 19.807h9.835a3.351 3.351 0 0 0 .351-.02L3.716 8.517c-.286.15-.499.372-.639.665s-.21.67-.21 1.132v7.452c0 .703.16 1.219.479 1.547.319.33.804.494 1.455.494zM9.655.02c-.748 0-1.456.149-2.124.445s-1.246.737-1.738 1.323-.845 1.322-1.06 2.207a.108.108 0 0 1-.004.034l-.015.044L6.02 5.383c0-.04.002-.077.005-.112s.005-.074.005-.113c.072-.781.279-1.442.62-1.982.342-.54.773-.95 1.294-1.23s1.09-.42 1.71-.42c.67 0 1.28.162 1.83.488s.99.802 1.319 1.43c.328.629.493 1.395.493 2.3v2.51l-4.385.01 7.52 7.529v-5.488c0-.632-.13-1.114-.391-1.446-.26-.332-.651-.527-1.172-.586V5.96c0-.996-.141-1.867-.425-2.612s-.67-1.364-1.162-1.856A4.84 4.84 0 0 0 11.607.388 5.321 5.321 0 0 0 9.654.02zm7.979 20.811c.143.143.32.215.532.215a.723.723 0 0 0 .532-.215c.143-.15.215-.329.215-.537s-.072-.384-.215-.527L1.95 3.029a.74.74 0 0 0-.532-.22.722.722 0 0 0-.542.22c-.143.144-.215.32-.215.533s.072.389.215.532z"/></svg>